# xmcd
#
# Track frame offsets:
# 150
# 17810
# 27952
# 41992
# 59442
# 69937
# 82120
# 97672
# 117190
# 134187
# 152700
# 162239
# 177172
# 191987
# 205962
# 224335
# 235992
# 251835
# 269275
# 288105
#
# Disc length: 4103 seconds
#
#
# Revision: 3
# Processed by: cddbd v1.5.2PL0 Copyright (c) Steve Scherf et al.
# Submitted via: FreeRIP 2.96 
#
DISCID=2b100514
DTITLE=Ney Matogrosso - Novo Millennium
DYEAR=2005
DGENRE=Latin
TTITLE0=A Ordem É Samba
TTITLE1=Sangue Latino
TTITLE2=Não Existe Pecado Ao Sul Do Equador
TTITLE3=Balada Do Louco
TTITLE4=O Vira
TTITLE5=Rosa De Hiroshima
TTITLE6=Bandido Corazón
TTITLE7=Poema
TTITLE8=Homem Com H
TTITLE9=América Do Sul
TTITLE10=As Rosas Não Falam
TTITLE11=Deixa A Menina
TTITLE12=Estava Escrito
TTITLE13=Exagerado
TTITLE14=Yolanda
TTITLE15=Samba Rasgado
TTITLE16=Melodia Sentimental
TTITLE17=Partido Alto
TTITLE18=Cubanakan
TTITLE19=Pro Dia Nascer Feliz
EXTD=
EXTT0=
EXTT1=
EXTT2=
EXTT3=
EXTT4=
EXTT5=
EXTT6=
EXTT7=
EXTT8=
EXTT9=
EXTT10=
EXTT11=
EXTT12=
EXTT13=
EXTT14=
EXTT15=
EXTT16=
EXTT17=
EXTT18=
EXTT19=
PLAYORDER=
